<svg width="512" height="512" viewBox="0 0 512 512" fill="none" xmlns="http://www.w3.org/2000/svg">
  <!-- Circular Background -->
  <circle cx="256" cy="256" r="256" fill="#18181b"/>
  
  <!-- Logo Content (Properly Scaled and Centered) -->
  <defs>
    <mask id="logoMask">
      <rect width="100" height="100" fill="white" />
      <path d="M15 54H45" stroke="black" stroke-width="6" stroke-linecap="round" />
      <path d="M45 54C55 54 60 34 80 24" stroke="black" stroke-width="6" stroke-linecap="round" />
      <path d="M45 54C55 54 70 54 85 54" stroke="black" stroke-width="6" stroke-linecap="round" />
      <path d="M45 54C55 54 60 74 80 84" stroke="black" stroke-width="6" stroke-linecap="round" />
    </mask>
  </defs>

  <g transform="translate(106, 106) scale(3)">
    <path
      mask="url(#logoMask)"
      d="M50 10C53 10 56 11.5 58 14.5L92 74C94 77 94 81 92 84C90 87 86 89 82 89H18C14 89 10 87 8 84C6 81 6 77 8 74L42 14.5C44 11.5 47 10 50 10Z"
      fill="white"
    />
  </g>
</svg>
